<svg width="55" height="77" viewBox="0 0 55 77" fill="none" xmlns="http://www.w3.org/2000/svg">
<g clip-path="url(#clip0)">
<path d="M13.6867 76.8453C21.1715 76.8453 27.2461 71.1075 27.2461 64.0378V51.2302H13.6867C6.20184 51.2302 0.127197 56.968 0.127197 64.0378C0.127197 71.1075 6.20184 76.8453 13.6867 76.8453Z" fill="#0ACF83"/>
<path d="M0.127197 38.4225C0.127197 31.3528 6.20184 25.615 13.6867 25.615H27.2461V51.2301H13.6867C6.20184 51.2301 0.127197 45.4923 0.127197 38.4225Z" fill="#A259FF"/>
<path d="M0.126465 12.8075C0.126465 5.73778 6.20111 0 13.6859 0H27.2454V25.6151H13.6859C6.20111 25.6151 0.126465 19.8773 0.126465 12.8075Z" fill="#F24E1E"/>
<path d="M27.2468 0H40.8063C48.2911 0 54.3658 5.73778 54.3658 12.8075C54.3658 19.8773 48.2911 25.6151 40.8063 25.6151H27.2468V0Z" fill="#FF7262"/>
<path d="M54.3658 38.4225C54.3658 45.4923 48.2911 51.2301 40.8063 51.2301C33.3215 51.2301 27.2468 45.4923 27.2468 38.4225C27.2468 31.3528 33.3215 25.615 40.8063 25.615C48.2911 25.615 54.3658 31.3528 54.3658 38.4225Z" fill="#1ABCFE"/>
</g>
<defs>
<clipPath id="clip0">
<rect width="54.2487" height="76.8452" fill="white" transform="translate(0.122559)"/>
</clipPath>
</defs>
</svg>
