<svg width="76" height="77" viewBox="0 0 76 77" fill="none" xmlns="http://www.w3.org/2000/svg">
<path d="M0 0H75.1315V76.8447H0V0Z" fill="#F7DF1E"/>
<path d="M19.755 64.2169L25.5046 60.658C26.6138 62.6695 27.6228 64.3714 30.0431 64.3714C32.3632 64.3714 33.8258 63.4432 33.8258 59.8327V35.2788H40.8863V59.9348C40.8863 67.4144 36.5997 70.8188 30.3458 70.8188C24.6977 70.8188 21.4191 67.8269 19.7549 64.2163" fill="black"/>
<path d="M44.7212 63.4435L50.4701 60.0391C51.9834 62.5669 53.9503 64.4237 57.43 64.4237C60.3555 64.4237 62.221 62.9277 62.221 60.8643C62.221 58.3884 60.3047 57.5114 57.0769 56.0676L55.3123 55.2932C50.2182 53.0756 46.8391 50.2902 46.8391 44.4097C46.8391 38.9935 50.8736 34.8667 57.178 34.8667C61.6666 34.8667 64.8943 36.4659 67.2139 40.6442L61.7167 44.2548C60.5062 42.0369 59.1954 41.1601 57.1781 41.1601C55.1104 41.1601 53.799 42.5012 53.799 44.2548C53.799 46.4213 55.1104 47.2984 58.136 48.6396L59.901 49.4133C65.9026 52.0442 69.2817 54.7262 69.2817 60.7611C69.2817 67.261 64.2889 70.8198 57.5815 70.8198C51.0252 70.8198 46.7887 67.6219 44.7213 63.4435" fill="black"/>
</svg>
