<svg width="100" height="77" viewBox="0 0 100 77" fill="none" xmlns="http://www.w3.org/2000/svg">
<path d="M86.0033 44.1466C82.5472 44.1668 79.5544 45.0271 77.0444 46.3081C76.1176 44.407 75.1908 42.7458 75.0365 41.5053C74.8627 40.0644 74.6504 39.1837 74.8627 37.4629C75.0749 35.7417 76.0404 33.3003 76.0404 33.1001C76.0209 32.92 75.8278 32.0395 73.8392 32.0195C71.8507 31.9995 70.1321 32.4197 69.939 32.9601C69.7459 33.5004 69.3598 34.7411 69.1088 36.0219C68.7612 37.903 65.1313 44.5669 63.0653 48.0689C62.3895 46.7081 61.8103 45.5074 61.6943 44.5467C61.5207 43.106 61.3081 42.2253 61.5207 40.5045C61.7331 38.7833 62.6985 36.342 62.6985 36.1419C62.6792 35.9618 62.4861 35.0813 60.4976 35.0613C58.5086 35.0413 56.7904 35.4615 56.5973 36.0018C56.4042 36.5422 56.1919 37.8229 55.7671 39.0636C55.3614 40.3044 50.5344 51.4309 49.2794 54.3326C48.6422 55.8135 48.0825 56.9942 47.6768 57.7947C47.2713 58.5951 47.6575 57.8547 47.6189 57.9347C47.2713 58.6151 47.0783 58.9954 47.0783 58.9954V59.0156C46.8079 59.5159 46.5183 59.9959 46.383 59.9959C46.2864 59.9959 46.0934 58.6552 46.4216 56.8143C47.136 52.9518 48.8737 46.9285 48.8546 46.7083C48.8546 46.6083 49.1826 45.5475 47.7345 45.0073C46.3251 44.467 45.8232 45.3675 45.7072 45.3675C45.5913 45.3675 45.4948 45.6877 45.4948 45.6877C45.4948 45.6877 47.0588 38.9039 42.5021 38.9039C39.6445 38.9039 35.7056 42.1258 33.7555 45.0676C32.5198 45.768 29.8939 47.2487 27.1135 48.8298C26.0516 49.4301 24.951 50.0705 23.9084 50.6509L23.6962 50.4103C18.1741 44.3067 7.96013 39.9842 8.38491 31.7794C8.53938 28.7976 9.5434 20.933 28.0021 11.4074C43.1203 3.6028 55.2265 5.74405 57.3308 10.5069C60.3236 17.3109 50.8626 29.9583 35.1461 31.7794C29.1606 32.4798 26.0132 30.0784 25.2217 29.1778C24.3915 28.2373 24.2756 28.1973 23.9667 28.3774C23.4647 28.6575 23.7736 29.498 23.9667 29.9983C24.4301 31.2591 26.3609 33.5004 29.6433 34.621C32.52 35.6016 39.5483 36.1419 48.0439 32.7399C57.5627 28.9177 64.9963 18.3114 62.8145 9.44623C60.5941 0.420926 46.1517 -2.54082 32.5009 2.48214C24.372 5.4839 15.5675 10.1667 9.23447 16.3103C1.70432 23.5945 0.507223 29.9583 1.00923 32.5998C2.76646 42.0254 15.2972 48.169 20.3173 52.7117C20.0663 52.8515 19.8346 52.9916 19.6222 53.1119C17.1122 54.3925 7.55466 59.5757 5.16047 65.0587C2.45734 71.2624 5.58524 75.7252 7.67051 76.3255C14.1194 78.1866 20.7228 74.8447 24.2948 69.3414C27.8472 63.8382 27.4227 56.694 25.7815 53.4321L25.7234 53.312L27.6928 52.1113C28.9673 51.3309 30.2223 50.6104 31.3227 49.9899C30.705 51.7309 30.2607 53.7921 30.0292 56.7939C29.7589 60.3161 31.1491 64.8786 32.9834 66.6797C33.7943 67.4599 34.7597 67.4801 35.3583 67.4801C37.4822 67.4801 38.4476 65.6589 39.5095 63.4778C40.8224 60.8162 41.9809 57.7344 41.9809 57.7344C41.9809 57.7344 40.5328 66.0793 44.491 66.0793C45.9391 66.0793 47.3872 64.1382 48.0437 63.1376V63.1576C48.0437 63.1576 48.0823 63.0976 48.1595 62.9575C48.2405 62.8333 48.3178 62.7066 48.3912 62.5775V62.5374C48.9705 61.4968 50.2641 59.1154 52.1949 55.1731C54.6854 50.0901 57.0798 43.7264 57.0798 43.7264C57.0798 43.7264 57.3115 45.2873 58.0259 47.8488C58.4505 49.3699 59.3773 51.0307 60.0917 52.6516C59.5125 53.4921 59.1649 53.9726 59.1649 53.9726L59.1842 53.9926C58.721 54.633 58.1995 55.3136 57.6591 55.9938C55.6897 58.4352 53.3341 61.2171 53.0251 62.0175C52.6583 62.9579 52.7355 63.6583 53.4499 64.2188C53.9712 64.6191 54.898 64.6989 55.8827 64.6191C57.6591 64.4988 58.8948 64.0387 59.5126 63.7584C60.4781 63.3982 61.5786 62.8578 62.6406 62.0574C64.5714 60.5767 65.7492 58.4755 65.6333 55.6738C65.5754 54.1329 65.0927 52.612 64.4941 51.1712C64.6679 50.911 64.8419 50.6507 65.0154 50.3707C68.0661 45.7478 70.4217 40.665 70.4217 40.665C70.4217 40.665 70.6534 42.2259 71.3678 44.7874C71.7345 46.0882 72.4684 47.5092 73.1248 48.91C70.2672 51.3315 68.4716 54.1331 67.8537 55.9742C66.7146 59.3762 67.6027 60.9171 69.2825 61.2773C70.0353 61.4374 71.1168 61.0772 71.9275 60.717C72.9316 60.3768 74.148 59.7962 75.268 58.9359C77.1988 57.4551 79.0524 55.3938 78.9559 52.6122C78.8979 51.3315 78.5697 50.0707 78.1256 48.87C80.5584 47.8294 83.7055 47.229 87.7024 47.7293C96.2945 48.7699 97.9936 54.3332 97.6656 56.6546C97.3373 58.9762 95.5417 60.2567 94.9429 60.6569C94.3444 61.0372 94.1513 61.1774 94.2092 61.4574C94.2865 61.8779 94.5568 61.8576 95.0781 61.7778C95.7925 61.6575 99.5962 59.8767 99.7506 55.5944C99.9823 50.0903 94.9429 44.0868 86.0033 44.1466ZM19.7381 67.3002C16.8998 70.5221 12.903 71.7429 11.2039 70.7022C9.36962 69.6016 10.0838 64.8588 13.5788 61.4368C15.7027 59.3556 18.4637 57.4344 20.2787 56.2537C20.6841 55.9936 21.302 55.6136 22.0357 55.1531C22.1516 55.0733 22.2288 55.033 22.2288 55.033C22.3639 54.953 22.5184 54.8529 22.6729 54.7529C23.9665 59.6357 22.7308 63.9183 19.7381 67.3002ZM40.4942 52.6716C39.5095 55.1731 37.4242 61.5969 36.1692 61.2367C35.0878 60.9365 34.4315 56.0736 35.9566 51.2708C36.7289 48.8492 38.3701 45.9677 39.3355 44.8468C40.8997 43.0458 42.5986 42.4454 43.0236 43.1859C43.5256 44.1466 41.1121 51.1107 40.4942 52.6716ZM57.6205 61.1566C57.1957 61.377 56.8095 61.5369 56.6357 61.417C56.5006 61.3369 56.8093 61.0368 56.8093 61.0368C56.8093 61.0368 58.9525 58.6554 59.8021 57.5547C60.2848 56.9145 60.864 56.1741 61.4819 55.3334V55.5735C61.4821 58.455 58.8176 60.3762 57.6205 61.1566ZM70.827 58.0348C70.5181 57.7947 70.5569 57.0542 71.5993 54.7329C72.005 53.8123 72.9316 52.2714 74.5341 50.8105C74.7272 51.4109 74.8433 51.991 74.8237 52.5316C74.8046 56.1337 72.3332 57.4745 70.827 58.0348Z" fill="#CF649A"/>
</svg>
